<svg width="24" height="24" viewBox="0 0 24 24" fill="none" xmlns="http://www.w3.org/2000/svg">
<path d="M12.0486 18.6648C15.7026 18.6648 18.6648 15.7027 18.6648 12.0486C18.6648 8.3946 15.7026 5.43243 12.0486 5.43243C8.39455 5.43243 5.43237 8.3946 5.43237 12.0486C5.43237 15.7027 8.39455 18.6648 12.0486 18.6648Z" stroke="#1A1A1A" stroke-width="1.6" stroke-miterlimit="10" stroke-linecap="round" stroke-linejoin="round"/>
<path d="M12.0487 15.2594C13.822 15.2594 15.2595 13.8219 15.2595 12.0486C15.2595 10.2753 13.822 8.83782 12.0487 8.83782C10.2754 8.83782 8.83789 10.2753 8.83789 12.0486C8.83789 13.8219 10.2754 15.2594 12.0487 15.2594Z" fill="#1A1A1A"/>
<path d="M12.0486 19.054V21" stroke="#1A1A1A" stroke-width="1.6" stroke-miterlimit="10" stroke-linecap="round" stroke-linejoin="round"/>
<path d="M12.0486 3V5.04324" stroke="#1A1A1A" stroke-width="1.6" stroke-miterlimit="10" stroke-linecap="round" stroke-linejoin="round"/>
<path d="M5.04324 12.0486H3" stroke="#1A1A1A" stroke-width="1.6" stroke-miterlimit="10" stroke-linecap="round" stroke-linejoin="round"/>
<path d="M20.9999 12.0486H18.8594" stroke="#1A1A1A" stroke-width="1.6" stroke-miterlimit="10" stroke-linecap="round" stroke-linejoin="round"/>
</svg>
